<?xml version="1.0" encoding="utf-8"?>
<!-- Generator: Adobe Illustrator 16.0.0, SVG Export Plug-In . SVG Version: 6.00 Build 0)  -->
<!DOCTYPE svg PUBLIC "-//W3C//DTD SVG 1.1//EN" "http://www.w3.org/Graphics/SVG/1.1/DTD/svg11.dtd">
<svg version="1.1" id="Layer_1" xmlns="http://www.w3.org/2000/svg" xmlns:xlink="http://www.w3.org/1999/xlink" x="0px" y="0px"
	 width="20.379px" height="41.656px" viewBox="0 0 20.379 41.656" enable-background="new 0 0 20.379 41.656" xml:space="preserve">
<path fill="#F6F6F6" d="M7.36,31.18v-2.312c-2.907-0.34-5.099-2.801-5.1-5.729V8.1C2.236,4.944,4.764,2.36,7.92,2.315h4.54
	c3.156,0.045,5.685,2.629,5.66,5.785v15.041c0.021,2.935-2.185,5.406-5.101,5.728v2.313c4.184-0.339,7.396-3.846,7.371-8.041V8.1
	c0.032-4.421-3.51-8.04-7.932-8.1H7.92C3.499,0.06-0.043,3.679-0.01,8.1v15.041C-0.057,27.344,3.168,30.861,7.36,31.18z
	 M10.19,12.148c0.63-0.01,1.135-0.526,1.13-1.157V7.52c0.009-0.624-0.489-1.137-1.114-1.146C9.582,6.365,9.069,6.863,9.06,7.487
	c0,0.011,0,0.022,0,0.033v3.471C9.055,11.622,9.56,12.138,10.19,12.148z M9.06,28.924v8.793l-0.91-0.926
	c-0.407-0.439-1.093-0.465-1.532-0.059c-0.02,0.02-0.04,0.039-0.058,0.059c-0.447,0.443-0.45,1.166-0.006,1.613
	c0.002,0.002,0.004,0.004,0.006,0.007l0.8,0.81l2.04,2.082l0,0c0.039,0.061,0.1,0.103,0.17,0.116l0.05,0.058
	c0.06,0,0.06,0.059,0.12,0.059c0.045-0.004,0.088,0.02,0.11,0.058c0.045-0.008,0.091,0.017,0.11,0.06h0.46
	c0.045,0.004,0.088-0.021,0.11-0.06c0.045,0.009,0.091-0.016,0.11-0.058c0.061,0,0.061-0.059,0.12-0.059
	c0.028,0,0.051-0.023,0.051-0.053c0-0.002,0-0.003,0-0.005c0.043-0.056,0.103-0.097,0.17-0.116l0,0l2.039-2.082l0.801-0.81
	c0.447-0.444,0.449-1.167,0.006-1.614c-0.002-0.002-0.004-0.004-0.006-0.006c-0.407-0.439-1.094-0.465-1.531-0.059
	c-0.021,0.02-0.04,0.039-0.059,0.059l-0.91,0.926V25.453c0.009-0.624-0.49-1.137-1.114-1.146c-0.624-0.009-1.137,0.49-1.146,1.113
	c0,0.012,0,0.021,0,0.033V28.924L9.06,28.924z"/>
</svg>
